<svg width="25" height="24" viewBox="0 0 25 24" fill="none" xmlns="http://www.w3.org/2000/svg">
<path d="M2.80028 10.6358C3.17828 10.1318 3.75773 9.75 4.46094 9.75C5.16415 9.75 5.7436 10.1318 6.1216 10.6358C6.49942 11.1396 6.71094 11.8011 6.71094 12.5C6.71094 13.1989 6.49942 13.8604 6.1216 14.3642C5.88855 14.6749 5.57893 14.9392 5.21094 15.0962V20.5C5.21094 20.9142 4.87515 21.25 4.46094 21.25C4.04672 21.25 3.71094 20.9142 3.71094 20.5V15.0962C3.34295 14.9392 3.03333 14.6749 2.80028 14.3642C2.42245 13.8604 2.21094 13.1989 2.21094 12.5C2.21094 11.8011 2.42245 11.1396 2.80028 10.6358Z" fill="#0060A6"/>
<path fill-rule="evenodd" clip-rule="evenodd" d="M2.21094 20.5C2.21094 20.0858 2.54672 19.75 2.96094 19.75H22.9609C23.3752 19.75 23.7109 20.0858 23.7109 20.5C23.7109 20.9142 23.3752 21.25 22.9609 21.25H2.96094C2.54672 21.25 2.21094 20.9142 2.21094 20.5Z" fill="#0060A6"/>
<path d="M21.4612 21.25C21.8754 21.25 22.2112 20.9142 22.2112 20.5L22.2112 9.83594L22.4612 10.0596C22.77 10.3355 23.2447 10.3088 23.5207 10C23.7967 9.69119 23.7699 9.21645 23.4612 8.94043L18.6536 4.64355C18.0377 4.09298 17.522 3.63216 17.0598 3.31543C16.57 2.9798 16.0635 2.75 15.4612 2.75C14.8588 2.75 14.3524 2.9798 13.8625 3.31543C13.4003 3.63216 12.8846 4.09297 12.2688 4.64355L7.46118 8.94043C7.15242 9.21645 7.12567 9.69119 7.40161 10C7.67763 10.3088 8.15237 10.3355 8.46118 10.0596L8.71118 9.83594L8.71118 20.5C8.71118 20.9142 9.04697 21.25 9.46118 21.25H21.4612ZM14.4612 8.25C14.047 8.25 13.7112 7.91421 13.7112 7.5C13.7112 7.08579 14.047 6.75 14.4612 6.75L16.4612 6.75C16.8754 6.75 17.2112 7.08579 17.2112 7.5C17.2112 7.91421 16.8754 8.25 16.4612 8.25L14.4612 8.25ZM14.4612 11.25C14.047 11.25 13.7112 10.9142 13.7112 10.5C13.7112 10.0858 14.047 9.75 14.4612 9.75L16.4612 9.75C16.8754 9.75 17.2112 10.0858 17.2112 10.5C17.2112 10.9142 16.8754 11.25 16.4612 11.25L14.4612 11.25ZM17.9612 21.25C17.547 21.25 17.2112 20.9142 17.2112 20.5V16.5C17.2112 16.0076 17.2092 15.7136 17.1809 15.5029C17.1593 15.3424 17.1266 15.3029 16.9582 15.2803C16.7475 15.252 16.4536 15.25 15.9612 15.25H14.9612C14.4687 15.25 14.1748 15.252 13.9641 15.2803C13.7958 15.3029 13.763 15.3425 13.7415 15.5029C13.7132 15.7136 13.7112 16.0077 13.7112 16.5L13.7112 20.5C13.7112 20.9142 13.3754 21.25 12.9612 21.25C12.547 21.25 12.2112 20.9142 12.2112 20.5C12.2112 19.1517 12.2113 17.8034 12.2112 16.4551C12.2111 16.0224 12.2108 15.6255 12.2541 15.3027C12.3019 14.9473 12.4149 14.5717 12.7239 14.2627C13.0329 13.9537 13.4084 13.8408 13.7639 13.793C14.0978 13.7481 14.511 13.75 14.9612 13.75H15.9612C16.4114 13.75 16.8245 13.7481 17.1584 13.793C17.5139 13.8408 17.8895 13.9537 18.1985 14.2627C18.5075 14.5717 18.6204 14.9473 18.6682 15.3027C18.7116 15.6255 18.7112 16.0223 18.7112 16.4551C18.711 17.8033 18.7112 19.1518 18.7112 20.5C18.7112 20.9142 18.3754 21.25 17.9612 21.25Z" fill="#0060A6"/>
</svg>
